<svg width="99" height="24" viewBox="0 0 99 24" fill="none" xmlns="http://www.w3.org/2000/svg">
  <g clip-path="url(#typo)">
    <path d="M6.332 9.50404L6.164 9.07203L5.948 9.50404L4.052 12C3.908 11.68 3.836 11.288 3.836 10.824C3.836 10.352 3.912 9.86404 4.064 9.36003C4.216 8.85603 4.452 8.38403 4.772 7.94403L10.364 0.384033H12.956L7.532 7.44003L13.7119 17.793L9.36101 14.8316L8.66 13.668L6.332 9.50404Z" fill="#DA3832"/>
    <path d="M0.5 17.832V0.384033H2.78V17.832H0.5Z" fill="#000039"/>
    <path d="M14.4481 17.8321C13.3761 17.8321 12.4001 17.5877 11.5201 17.0989C10.6481 16.6102 9.95206 15.8928 9.43206 14.9468C8.92006 14.0008 8.66406 12.842 8.66406 11.4703C8.66406 10.3902 8.82806 9.45213 9.15606 8.65592C9.49206 7.8597 9.93606 7.20145 10.4881 6.68115C11.0481 6.16085 11.6721 5.77457 12.3601 5.5223C13.0481 5.26215 13.7441 5.13208 14.4481 5.13208C15.6721 5.13208 16.7161 5.41588 17.5801 5.98348C18.4441 6.54319 19.1001 7.30393 19.5481 8.26569C20.0041 9.21957 20.2321 10.2878 20.2321 11.4703C20.2321 12.4951 20.0761 13.4056 19.7641 14.2018C19.4601 14.9901 19.0401 15.6563 18.5041 16.2002C17.9681 16.7363 17.3521 17.1423 16.6561 17.4182C15.9601 17.6941 15.2241 17.8321 14.4481 17.8321ZM14.4481 16.1293C15.2241 16.1293 15.8641 15.9164 16.3681 15.4907C16.8721 15.065 17.2441 14.5014 17.4841 13.7998C17.7321 13.0903 17.8561 12.3138 17.8561 11.4703C17.8561 10.4139 17.6961 9.54279 17.3761 8.85694C17.0641 8.17109 16.6481 7.66262 16.1281 7.33152C15.6161 7.00042 15.0561 6.83487 14.4481 6.83487C13.8401 6.83487 13.2761 7.00042 12.7561 7.33152C12.2441 7.66262 11.8281 8.17109 11.5081 8.85694C11.1961 9.54279 11.0401 10.4139 11.0401 11.4703C11.0401 12.842 11.3361 13.9614 11.9281 14.8285C12.5201 15.6957 13.3601 16.1293 14.4481 16.1293Z" fill="#DA3832"/>
    <path d="M96.1997 17.8321C94.8957 17.8321 93.8917 17.4041 93.1877 16.5481C92.4917 15.6921 92.1437 14.5041 92.1437 12.9841V6.81607V6.16203V1.99207L94.2557 1.32007V13.2481C94.2557 14.0721 94.4317 14.7641 94.7837 15.3241C95.1437 15.8761 95.6157 16.1521 96.1997 16.1521C96.5117 16.1521 96.8117 16.1241 97.0997 16.0681C97.3957 16.0121 97.7517 15.9201 98.1677 15.7921L98.6957 17.3041C98.0877 17.5041 97.6157 17.6401 97.2797 17.7121C96.9437 17.7921 96.5837 17.8321 96.1997 17.8321ZM97.1357 6.81607C96.7597 6.81607 96.4397 6.74407 96.1757 6.60007C95.9197 6.44807 95.7037 6.24807 95.5277 6.00007C95.3597 5.74407 95.2237 5.46407 95.1197 5.16007H98.5037V6.81607H97.1357Z" fill="#221F20"/>
    <path d="M92.1483 8.80808C92.1483 8.25608 91.8189 7.80408 91.5709 7.45208C91.3229 7.09208 90.9509 6.91208 90.4549 6.91208C90.2629 6.91208 90.0949 6.93208 89.9509 6.97208C89.8069 7.01208 89.6309 7.05608 89.4229 7.10408C88.9589 7.20808 88.5269 7.21208 88.1269 7.11608C87.7269 7.02008 87.3589 6.80008 87.0229 6.45608C87.8789 5.95208 88.5909 5.61608 89.1589 5.44808C89.7349 5.27208 90.2389 5.18408 90.6709 5.18408C91.3109 5.18408 91.9029 5.30008 92.4469 5.53208C92.9909 5.76408 93.4269 6.16008 93.7549 6.72008C94.0829 7.28008 94.2469 7.81608 94.2469 8.80808H92.1483ZM84.0709 17.8321V8.44808C84.0709 8.00008 84.0429 7.52408 83.9869 7.02008C83.9389 6.51608 83.8469 5.98408 83.7109 5.42408H85.4389C85.8229 5.85608 86.0749 6.28408 86.1949 6.70808C86.3149 7.13208 86.3749 7.58408 86.3749 8.06408V17.8321H84.0709Z" fill="#221F20"/>
    <path d="M78.9633 18.0721C78.0833 18.0721 77.2833 17.9081 76.5633 17.5801C75.8513 17.2521 75.2393 16.7961 74.7273 16.2121C74.2233 15.6201 73.8353 14.9281 73.5633 14.1361C73.2913 13.3361 73.1553 12.4641 73.1553 11.5201C73.1553 10.2241 73.3913 9.10408 73.8633 8.16008C74.3433 7.20808 75.0233 6.47608 75.9033 5.96408C76.7833 5.44408 77.8273 5.18408 79.0353 5.18408C79.8593 5.18408 80.5873 5.36808 81.2193 5.73608C81.8513 6.09608 82.3593 6.59208 82.7433 7.22408C83.1353 7.84808 83.3753 8.56008 83.4633 9.36008C83.5593 10.1521 83.4753 10.9761 83.2113 11.8321H76.2513C76.4193 11.3761 76.6553 10.9961 76.9593 10.6921C77.2713 10.3801 77.7153 10.2241 78.2913 10.2241H81.3393C81.4113 9.60808 81.3393 9.05208 81.1233 8.55608C80.9153 8.05208 80.6033 7.65208 80.1873 7.35608C79.7793 7.06008 79.3153 6.91208 78.7953 6.91208C78.1233 6.91208 77.5313 7.09208 77.0193 7.45208C76.5073 7.81208 76.1073 8.34008 75.8193 9.03608C75.5313 9.72408 75.3873 10.5601 75.3873 11.5441C75.3873 12.4961 75.5513 13.3321 75.8793 14.0521C76.2153 14.7721 76.6713 15.3361 77.2473 15.7441C77.8233 16.1441 78.4753 16.3441 79.2033 16.3441C79.7553 16.3441 80.2793 16.2881 80.7753 16.1761C81.2713 16.0561 81.8593 15.8241 82.5393 15.4801L83.1393 17.0641C82.3713 17.4561 81.6273 17.7201 80.9073 17.8561C80.1873 18.0001 79.5393 18.0721 78.9633 18.0721Z" fill="#221F20"/>
    <path d="M69.8511 17.8321V8.80808C69.8511 8.25608 69.7271 7.80408 69.4791 7.45208C69.2311 7.09208 68.8591 6.91208 68.3631 6.91208C68.1711 6.91208 68.0031 6.93208 67.8591 6.97208C67.7151 7.01208 67.5391 7.05608 67.3311 7.10408C66.8671 7.20808 66.4351 7.21208 66.0351 7.11608C65.6351 7.02008 65.2671 6.80008 64.9311 6.45608C65.7871 5.95208 66.4991 5.61608 67.0671 5.44808C67.6431 5.27208 68.1471 5.18408 68.5791 5.18408C69.2191 5.18408 69.8111 5.30008 70.3551 5.53208C70.8991 5.76408 71.3351 6.16008 71.6631 6.72008C71.9911 7.28008 72.1551 8.05608 72.1551 9.04808V17.8321H69.8511ZM61.9791 17.8321V8.44808C61.9791 8.00008 61.9511 7.52408 61.8951 7.02008C61.8471 6.51608 61.7551 5.98408 61.6191 5.42408H63.3471C63.7311 5.85608 63.9831 6.28408 64.1031 6.70808C64.2231 7.13208 64.2831 7.58408 64.2831 8.06408V17.8321H61.9791Z" fill="#221F20"/>
    <path d="M54.8348 18.0721C53.7628 18.0721 52.7868 17.8241 51.9068 17.3281C51.0348 16.8321 50.3388 16.1041 49.8188 15.1441C49.3068 14.1841 49.0508 13.0081 49.0508 11.6161C49.0508 10.5201 49.2148 9.56808 49.5428 8.76008C49.8788 7.95208 50.3228 7.28408 50.8748 6.75608C51.4348 6.22808 52.0588 5.83608 52.7468 5.58008C53.4348 5.31608 54.1308 5.18408 54.8348 5.18408C56.0588 5.18408 57.1028 5.47208 57.9668 6.04808C58.8308 6.61608 59.4868 7.38808 59.9348 8.36408C60.3908 9.33208 60.6188 10.4161 60.6188 11.6161C60.6188 12.6561 60.4628 13.5801 60.1508 14.3881C59.8468 15.1881 59.4268 15.8641 58.8908 16.4161C58.3548 16.9601 57.7388 17.3721 57.0428 17.6521C56.3468 17.9321 55.6108 18.0721 54.8348 18.0721ZM54.8348 16.3441C55.6108 16.3441 56.2508 16.1281 56.7548 15.6961C57.2588 15.2641 57.6308 14.6921 57.8708 13.9801C58.1188 13.2601 58.2428 12.4721 58.2428 11.6161C58.2428 10.5441 58.0828 9.66008 57.7628 8.96408C57.4508 8.26808 57.0348 7.75208 56.5148 7.41608C56.0028 7.08008 55.4428 6.91208 54.8348 6.91208C54.2268 6.91208 53.6628 7.08008 53.1428 7.41608C52.6308 7.75208 52.2148 8.26808 51.8948 8.96408C51.5828 9.66008 51.4268 10.5441 51.4268 11.6161C51.4268 13.0081 51.7228 14.1441 52.3148 15.0241C52.9068 15.9041 53.7468 16.3441 54.8348 16.3441Z" fill="#221F20"/>
    <path d="M37.0243 23.6161V9.52808C37.0243 8.56808 37.0186 7.74808 36.9386 7.06808C36.8586 6.38808 36.7601 5.69101 36.6641 5.27501C36.8426 5.27501 38.6546 5.76808 38.7746 5.95208C38.9026 6.13608 39.0186 6.39208 39.1226 6.72008L39.1706 7.10408L39.3626 6.67208C39.8666 6.12008 40.4386 5.73608 41.0786 5.52008C41.7186 5.29608 42.2906 5.18408 42.7946 5.18408C43.9146 5.18408 44.8666 5.47208 45.6506 6.04808C46.4346 6.61608 47.0307 7.39208 47.4387 8.37608C47.8467 9.36008 48.0507 10.4641 48.0507 11.6881C48.0507 12.6481 47.8987 13.5161 47.5946 14.2921C47.2906 15.0601 46.8746 15.7201 46.3466 16.2721C45.8186 16.8241 45.2226 17.2481 44.5586 17.5441C43.8946 17.8321 43.2026 17.9761 42.4826 17.9761C42.1226 17.9761 41.7386 17.9441 41.3306 17.8801C40.9306 17.8241 40.5146 17.7201 40.0826 17.5681C40.3146 17.1681 40.6106 16.8441 40.9706 16.5961C41.3306 16.3481 41.7866 16.2321 42.3386 16.2481C42.8906 16.2641 43.4226 16.1161 43.9346 15.8041C44.4466 15.4921 44.8626 15.0001 45.1826 14.3281C45.5106 13.6481 45.6746 12.7681 45.6746 11.6881C45.6746 10.7601 45.5506 9.93608 45.3026 9.21608C45.0546 8.49608 44.6866 7.93208 44.1986 7.52408C43.7186 7.11608 43.1226 6.91208 42.4106 6.91208C41.8746 6.91208 41.3386 7.05608 40.8026 7.34408C40.2746 7.62408 39.8603 8.06408 39.3643 8.66408V23.6161H37.0243Z" fill="#221F20"/>
    <path d="M37.0244 17.8321V8.80808C37.0244 8.25608 36.9004 7.80408 36.6524 7.45208C36.4124 7.09208 36.0404 6.91208 35.5364 6.91208C35.3444 6.91208 35.1644 6.93208 34.9964 6.97208C34.8364 7.01208 34.6484 7.05608 34.4324 7.10408C33.9684 7.20808 33.5364 7.21208 33.1364 7.11608C32.7364 7.02008 32.3684 6.80008 32.0324 6.45608C32.8884 5.95208 33.6164 5.61608 34.2164 5.44808C34.8244 5.27208 35.3444 5.18408 35.7764 5.18408C36.4084 5.18408 36.9924 5.30008 37.5284 5.53208C38.0724 5.76408 38.5084 6.16008 38.8364 6.72008C39.1644 7.28008 39.3284 8.05608 39.3284 9.04808V17.8321H37.0244ZM21.5924 17.8321V8.44808C21.5924 8.00008 21.5644 7.52408 21.5084 7.02008C21.4604 6.51608 21.3684 5.98408 21.2324 5.42408H22.9604C23.3444 5.85608 23.5964 6.28408 23.7164 6.70808C23.8364 7.13208 23.8964 7.58408 23.8964 8.06408V17.8321H21.5924ZM29.3204 17.8321V8.80808C29.3204 8.25608 29.2044 7.80408 28.9724 7.45208C28.7484 7.09208 28.4004 6.91208 27.9284 6.91208C27.7364 6.91208 27.5684 6.92808 27.4244 6.96008C27.2804 6.99208 27.1044 7.03208 26.8964 7.08008C26.4324 7.18408 26.0084 7.18808 25.6244 7.09208C25.2404 6.99608 24.8804 6.77608 24.5444 6.43208C25.4004 5.92808 26.1124 5.59608 26.6804 5.43608C27.2564 5.26808 27.7604 5.18408 28.1924 5.18408C28.8164 5.18408 29.3884 5.30008 29.9084 5.53208C30.4284 5.76408 30.8444 6.16008 31.1564 6.72008C31.4684 7.28008 31.6244 8.05608 31.6244 9.04808V17.8321H29.3204Z" fill="#221F20"/>
  </g>
  <defs>
    <clipPath id="typo">
      <rect width="98.1957" height="23.232" fill="white" transform="translate(0.5 0.384033)"/>
    </clipPath>
  </defs>
</svg>
