<svg width="9" height="18" viewBox="0 0 9 18" fill="none" xmlns="http://www.w3.org/2000/svg">
  <g opacity="0.5" clip-path="url(#secondary)">
    <path d="M5.46321 0V2.70494C6.18121 2.78283 6.81844 2.95656 7.3749 3.22616C7.93135 3.49576 8.39506 3.80429 8.76603 4.15177L7.8416 5.10434C7.49457 4.78083 7.1236 4.52321 6.72869 4.3315C6.33379 4.1338 5.91196 4.00799 5.46321 3.95407V8.05192C6.06753 8.24962 6.62997 8.50424 7.15052 8.81578C7.67706 9.12731 8.10188 9.52571 8.42498 10.011C8.74808 10.4963 8.90963 11.1073 8.90963 11.8442C8.90963 12.4134 8.78099 12.9496 8.52371 13.4528C8.26642 13.9501 7.88049 14.3724 7.36592 14.7199C6.85734 15.0614 6.2231 15.2831 5.46321 15.3849V18H4.25158V15.4388C3.40194 15.3849 2.66299 15.1872 2.03474 14.8457C1.41246 14.5042 0.900886 14.1388 0.5 13.7494L1.39751 12.7519C1.77446 13.1353 2.19629 13.4558 2.66299 13.7134C3.13568 13.9651 3.66521 14.1148 4.25158 14.1628V9.18422C3.20449 8.83674 2.39374 8.39041 1.81933 7.84523C1.25091 7.29406 0.966703 6.6021 0.966703 5.76935C0.966703 5.28407 1.08637 4.82277 1.32571 4.38542C1.57102 3.94209 1.93601 3.56765 2.42066 3.26211C2.9113 2.95656 3.5216 2.77084 4.25158 2.70494V0H5.46321ZM5.46321 9.60659V14.0819C6.67783 13.8362 7.28515 13.0964 7.28515 11.8622C7.28515 11.359 7.15052 10.9276 6.88127 10.5681C6.618 10.2087 6.14531 9.88817 5.46321 9.60659ZM4.25158 3.99001C3.76094 4.07389 3.35706 4.26261 3.03994 4.55617C2.72881 4.84373 2.57324 5.23914 2.57324 5.74239C2.57324 6.16176 2.68692 6.51822 2.91429 6.81178C3.14764 7.10534 3.5934 7.38692 4.25158 7.65651V3.99001Z" fill="#DA3832"/>
  </g>
  <defs>
    <clipPath id="secondary">
      <rect width="8.40963" height="18" fill="white" transform="translate(0.5)"/>
    </clipPath>
  </defs>
</svg>
