<?xml version="1.0" standalone="no"?>
<!DOCTYPE svg PUBLIC "-//W3C//DTD SVG 20010904//EN"
 "http://www.w3.org/TR/2001/REC-SVG-20010904/DTD/svg10.dtd">
<svg version="1.0" xmlns="http://www.w3.org/2000/svg"
 width="700.000000pt" height="700.000000pt" viewBox="0 0 700.000000 700.000000"
 preserveAspectRatio="xMidYMid meet">
<metadata>
Created by potrace 1.14, written by Peter Selinger 2001-2017
</metadata>
<g transform="translate(0.000000,700.000000) scale(0.100000,-0.100000)"
fill="#000000" stroke="none">
<path d="M2840 6980 c-5 -3 -45 -55 -89 -115 -45 -61 -87 -117 -94 -125 -7 -8
-34 -46 -62 -85 -27 -38 -55 -77 -62 -85 -10 -12 -523 -706 -877 -1185 -45
-60 -121 -164 -171 -231 -49 -67 -171 -231 -270 -365 -99 -134 -196 -265 -215
-291 -19 -26 -43 -58 -54 -72 -10 -14 -93 -126 -184 -248 -206 -279 -257 -356
-331 -510 -83 -172 -134 -341 -175 -573 -28 -155 -26 -391 4 -545 13 -68 49
-178 60 -185 5 -3 30 23 56 57 256 336 702 929 713 948 8 14 27 51 43 83 15
31 30 57 32 57 2 0 14 -26 26 -57 36 -92 50 -124 90 -193 20 -36 49 -86 64
-112 14 -27 37 -68 51 -93 14 -25 36 -65 50 -90 47 -84 78 -140 165 -295 48
-85 185 -330 305 -545 119 -214 243 -433 274 -485 31 -52 60 -103 66 -112 47
-80 190 -314 194 -318 3 -3 14 -21 25 -40 170 -318 422 -594 721 -790 193
-126 538 -266 749 -304 16 -3 52 -10 80 -15 48 -9 70 -13 190 -27 73 -9 401
-11 476 -2 36 4 85 10 110 12 25 3 70 10 100 17 30 6 69 13 85 15 17 3 85 21
153 40 598 170 1073 564 1348 1119 79 159 159 357 179 445 2 8 12 50 24 93 62
236 86 460 86 797 -1 251 -6 334 -35 510 -5 30 -12 71 -15 90 -22 136 -93 376
-158 535 -125 304 -283 548 -495 761 -347 350 -774 551 -1297 611 -142 16
-575 8 -645 -12 -8 -2 -33 -6 -55 -9 -178 -20 -540 -147 -740 -259 -520 -291
-891 -768 -1060 -1359 -20 -68 -37 -127 -39 -133 -1 -5 -120 187 -264 428
l-262 438 52 67 c28 37 61 79 72 94 21 26 34 43 79 102 45 59 147 191 155 201
4 6 96 125 203 265 244 318 803 1045 835 1085 12 17 101 132 197 257 96 125
186 242 200 260 59 75 367 479 367 481 0 5 -1022 2 -1030 -3z m1845 -2584 c37
-9 107 -26 120 -30 6 -1 30 -8 55 -15 66 -19 224 -98 310 -156 233 -157 442
-458 545 -785 25 -79 54 -188 61 -230 3 -14 9 -52 15 -85 28 -156 37 -309 34
-565 -2 -146 -6 -278 -9 -295 -2 -16 -7 -48 -10 -70 -35 -302 -144 -645 -272
-858 -88 -145 -232 -306 -354 -394 -207 -149 -440 -214 -735 -207 -77 2 -149
6 -160 7 -87 15 -120 22 -191 42 -180 51 -331 142 -475 285 -81 81 -110 119
-191 255 -53 88 -108 186 -123 218 -30 68 -101 275 -115 338 -63 294 -75 408
-74 719 0 282 9 391 50 601 67 347 191 609 397 843 172 194 457 348 710 382
23 4 44 8 46 10 7 7 333 -3 366 -10z"/>
</g>
</svg>
