<svg width="24" height="25" viewBox="0 0 24 25" fill="none" xmlns="http://www.w3.org/2000/svg">
  <g clip-path="url(#emberjs)">
    <path fill-rule="evenodd" clip-rule="evenodd" d="M12.9415 3.12224C15.0776 3.08002 16.5871 3.65926 17.886 5.50293C20.7185 12.5256 10.5945 16.1499 10.1886 16.2924L10.1759 16.2966C10.1759 16.2966 9.87019 18.204 12.7736 18.1307C16.3467 18.1307 20.1032 15.3611 21.5322 14.1905C21.6983 14.054 21.9097 13.9852 22.1243 13.9979C22.339 14.0107 22.5408 14.1039 22.6896 14.2591L23.7595 15.3705C23.9099 15.5255 23.9958 15.7319 23.9998 15.9478C24.0039 16.1638 23.9259 16.3732 23.7815 16.5339C22.8515 17.5693 20.6693 19.6951 17.384 21.0683C17.384 21.0683 11.9024 23.6065 8.20837 21.203C6.00565 19.7705 5.39973 18.0553 5.15338 16.2712C5.15467 16.2712 2.47893 16.1354 0.760637 15.4645C-0.95817 14.793 0.773331 12.7675 0.773331 12.7675C0.773331 12.7675 1.3018 11.93 2.30692 12.7675C3.31281 13.6037 5.19016 13.2266 5.19016 13.2266C5.35751 11.9056 5.63573 10.1625 6.45537 8.3227C8.1734 4.46672 10.8046 3.16369 12.9415 3.12224ZM14.1987 6.986C13.0669 5.89539 9.79895 8.07453 9.67279 13.0608C9.67279 13.0608 10.6375 13.3545 12.7736 11.8873C14.9108 10.4208 15.3305 8.07453 14.1987 6.986Z" fill="#E05C43"/>
  </g>
  <defs>
    <clipPath id="emberjs">
      <rect width="24" height="24" fill="white" transform="translate(0 0.678711)"/>
    </clipPath>
  </defs>
</svg>
