<svg width="25" height="24" viewBox="0 0 25 24" fill="none" xmlns="http://www.w3.org/2000/svg">
  <path d="M3.59879 12.9767C3.63314 13.6843 4.34072 13.3546 4.65673 13.1347C4.959 12.9218 5.0483 13.1004 5.07578 12.6882C5.09639 12.4134 5.12387 12.1455 5.11013 11.8707C4.64986 11.8295 4.15524 11.9394 3.77741 12.2142C3.57818 12.3516 3.22096 12.805 3.59879 12.9767Z" fill="#F6D2A2"/>
  <path d="M17.7031 21.6738C18.2458 22.0104 19.2419 23.0272 18.4244 23.5218C17.6413 24.2362 17.2016 22.7318 16.5146 22.5257C16.81 22.1204 17.181 21.7494 17.7031 21.6738Z" fill="#F6D2A2"/>
  <path d="M7.98851 22.8212C7.34963 22.9174 6.9924 23.4945 6.45656 23.7899C5.95507 24.0853 5.76272 23.6937 5.7215 23.6113C5.64594 23.5769 5.65281 23.6456 5.52915 23.522C5.06201 22.7869 6.01003 22.2511 6.50465 21.887C7.19162 21.7496 7.62442 22.3472 7.98851 22.8212Z" fill="#F6D2A2"/>
  <path d="M20.7182 12.8876C20.6838 13.5952 19.9762 13.2654 19.6602 13.0456C19.358 12.8327 19.2687 13.0113 19.2412 12.5991C19.2206 12.3243 19.1931 12.0564 19.2068 11.7816C19.6671 11.7404 20.1617 11.8503 20.5395 12.1251C20.7319 12.2625 21.096 12.7159 20.7182 12.8876Z" fill="#F6D2A2"/>
  <path d="M18.8425 4.25924C21.295 3.39366 19.3784 0.034364 17.2419 1.51822C15.8405 0.316022 13.9101 0.0961914 11.8835 0.0961914C9.89815 0.254195 8.00898 0.61829 6.68999 1.7724C4.56038 0.398459 2.59564 3.69592 5.09622 4.52716C4.39551 7.24757 5.1924 10.0229 5.08248 12.7914C4.97943 15.2783 4.32681 18.6101 5.70762 20.8427C6.88235 22.7525 9.4104 23.4326 11.4919 23.5082C14.1505 23.6044 17.3724 22.9517 18.6639 20.3756C19.9005 17.9231 19.557 14.8661 19.399 12.2212C19.241 9.54892 19.5364 6.83538 18.8425 4.25924Z" fill="#69D7E2"/>
  <path d="M20.9039 12.4685C20.8352 12.3242 20.7047 12.1593 20.581 12.07C20.265 11.8433 19.8597 11.7197 19.4407 11.7059C19.4269 11.28 19.4132 10.8129 19.4132 10.2221V9.68623C19.4063 7.99628 19.3857 7.25435 19.2895 6.32694C19.214 5.59875 19.0972 4.92552 18.9323 4.29351C19.4888 4.08054 19.8529 3.73019 19.9971 3.27679C20.1345 2.85773 20.0658 2.38372 19.8322 1.96467C19.5918 1.55249 19.2071 1.24335 18.7606 1.1197C18.2797 0.989172 17.7576 1.08535 17.2561 1.42196C16.8096 1.04413 16.2943 0.755601 15.7173 0.53577C14.6937 0.157936 13.5052 0.0136719 11.8909 0.0136719V0.082369L11.884 0.0136719C10.1597 0.151066 8.88192 0.418985 7.82398 0.934214C7.39806 1.14031 7.02022 1.38762 6.69048 1.67614C6.18212 1.36014 5.65315 1.28457 5.1654 1.4357C4.712 1.5731 4.32042 1.89597 4.08685 2.31503C3.85328 2.73408 3.79833 3.21496 3.95633 3.62714C4.11433 4.03933 4.47843 4.3622 5.02114 4.56142C4.84939 5.25527 4.76009 5.99033 4.74635 6.80095C4.73261 7.59097 4.76696 8.22298 4.89061 9.65188C4.97992 10.7167 5.01427 11.2044 5.02801 11.7952C4.56086 11.7746 4.09372 11.8983 3.74337 12.1525C3.61971 12.2418 3.48232 12.3998 3.42049 12.5509C3.33119 12.7433 3.36553 12.915 3.54415 13.018C3.57163 13.3478 3.75711 13.4989 4.03877 13.4714C4.24486 13.4508 4.49217 13.3409 4.70513 13.1898C4.75322 13.1554 4.80131 13.128 4.84939 13.1074C4.87 13.1005 4.88374 13.0936 4.90435 13.0867C4.90435 13.0867 4.94557 13.073 4.95931 13.0661C4.97992 13.0593 5.00053 13.0524 5.01427 13.0387C5.00053 13.3615 4.97305 13.6981 4.91122 14.4676C4.84252 15.3331 4.80817 15.8072 4.79444 16.3361C4.73261 18.3009 4.96618 19.7298 5.66689 20.8633C5.88672 21.2205 6.15464 21.5365 6.47065 21.825C6.40882 21.8662 6.14777 22.0586 6.06533 22.1204C5.77681 22.3403 5.57758 22.5257 5.4608 22.7318C5.30966 22.9997 5.30966 23.2677 5.48141 23.5493L5.48828 23.5562L5.49515 23.5631C5.57071 23.6386 5.61193 23.6592 5.66689 23.6592H5.67376H5.6875C5.69437 23.673 5.70124 23.6798 5.70811 23.6936C5.72872 23.7279 5.74933 23.7554 5.76994 23.7829C5.94168 23.9821 6.18212 24.0302 6.50499 23.8379C6.67674 23.7485 6.80039 23.6455 7.06144 23.4257C7.06831 23.4188 7.06831 23.4188 7.07518 23.4119C7.49423 23.0547 7.70033 22.9242 8.00946 22.8761L8.11938 22.8555C8.1606 22.8761 8.20181 22.8898 8.2499 22.9104C9.2254 23.302 10.3589 23.515 11.5061 23.5562C12.99 23.6111 14.4189 23.4257 15.628 22.986C15.9509 22.8692 16.2531 22.7318 16.5417 22.5807C16.7203 22.6494 16.8714 22.7937 17.1599 23.1303C17.1737 23.144 17.1737 23.144 17.1805 23.1577C17.1943 23.1715 17.1943 23.1784 17.2011 23.1852C17.2149 23.2058 17.2355 23.2196 17.2492 23.2402C17.4759 23.5081 17.6271 23.6386 17.7988 23.7142C18.0255 23.8104 18.2453 23.7623 18.472 23.5562C18.8705 23.3089 18.898 22.9242 18.6369 22.4845C18.4514 22.1754 18.1286 21.8525 17.8263 21.6464C18.1835 21.2961 18.4927 20.877 18.7331 20.403C19.3926 19.084 19.6468 17.5452 19.633 15.5667C19.6262 14.866 19.5987 14.2546 19.5231 13.0867V13.0524C19.5575 13.0661 19.5918 13.0867 19.6262 13.1142C19.8391 13.2585 20.0864 13.3753 20.2925 13.3959C20.5742 13.4234 20.7597 13.2722 20.7871 12.9425C20.9589 12.8326 20.9932 12.6608 20.9039 12.4685ZM18.7194 1.26396C19.1315 1.37388 19.4888 1.6624 19.7086 2.04711C19.9284 2.43181 19.9902 2.8646 19.8666 3.24931C19.7361 3.65462 19.4063 3.9775 18.8911 4.16985C18.788 3.79889 18.6644 3.43479 18.527 3.08444C18.7262 2.91269 18.8224 2.69973 18.6644 2.39746C18.5064 2.0952 18.2316 2.06085 17.9499 2.15015C17.7713 1.91658 17.5721 1.71049 17.366 1.51814C17.8194 1.22961 18.2866 1.14718 18.7194 1.26396ZM4.07312 3.58592C3.92885 3.21496 3.97694 2.7753 4.19677 2.39059C4.4166 2.00589 4.77383 1.70362 5.19975 1.57997C5.63941 1.44944 6.11342 1.51127 6.58056 1.78606C6.31264 2.0265 6.0722 2.30129 5.86611 2.60356C5.50889 2.41807 5.14479 2.38372 4.9387 2.76156C4.72574 3.16687 4.97305 3.42105 5.3234 3.6134C5.27532 3.73019 5.22723 3.85384 5.18601 3.9775C5.13792 4.12863 5.08983 4.28664 5.04861 4.44464C4.54713 4.25229 4.21738 3.95689 4.07312 3.58592ZM4.90435 12.9493C4.89748 12.9493 4.85626 12.9631 4.85626 12.97C4.83565 12.9768 4.81504 12.9837 4.79444 12.9974C4.73948 13.018 4.68452 13.0524 4.62956 13.0936C4.43721 13.231 4.20364 13.3341 4.02503 13.3478C3.81894 13.3684 3.70215 13.2791 3.68154 13.0318C3.82581 12.9837 3.88763 12.9493 3.94259 12.8669L3.83268 12.7845C3.79146 12.8394 3.75024 12.86 3.62658 12.9013C3.61971 12.9013 3.61971 12.9013 3.61284 12.9081C3.50293 12.8463 3.48232 12.7501 3.54415 12.6127C3.5991 12.4891 3.72276 12.3448 3.82581 12.2692C4.15555 12.0288 4.59521 11.912 5.03488 11.9395C5.03488 12.1112 5.04175 12.283 5.03488 12.4479C5.03488 12.4685 5.03488 12.4822 5.02801 12.5028C5.02114 12.599 5.02114 12.6402 5.01427 12.6883C4.99366 12.8875 4.97992 12.915 4.90435 12.9493ZM6.97901 23.3158C6.97214 23.3226 6.97214 23.3226 6.96527 23.3295C6.71109 23.5493 6.58743 23.6386 6.42943 23.7279C6.16838 23.8859 5.98977 23.8516 5.86611 23.7005C5.8455 23.6798 5.83176 23.6524 5.81802 23.6318C5.81115 23.6249 5.80428 23.6111 5.79741 23.6043C5.79741 23.6043 5.79741 23.6043 5.79741 23.5974C5.81115 23.4738 5.85924 23.3844 5.9829 23.1921C5.98977 23.1852 5.98977 23.1852 5.98977 23.1784C6.06533 23.0684 6.09968 23.0066 6.13403 22.931L6.01038 22.8761C5.9829 22.9379 5.94855 22.9929 5.87985 23.1028C5.87298 23.1097 5.87298 23.1097 5.87298 23.1165C5.74933 23.2951 5.69437 23.4051 5.66689 23.5287H5.66002C5.66002 23.5287 5.66002 23.5287 5.65315 23.5287H5.63941C5.62567 23.5218 5.60506 23.5081 5.57758 23.4806C5.30966 23.0547 5.52263 22.6906 6.12716 22.2372C6.20273 22.1822 6.45691 22.0036 6.5256 21.9487C6.53934 21.9487 6.55308 21.9418 6.56682 21.9349C6.93779 22.2509 7.37058 22.5257 7.85146 22.7524C7.85146 22.7593 7.85833 22.7662 7.8652 22.773C7.58354 22.8417 7.36371 22.986 6.97901 23.3158ZM18.5133 22.567C18.7262 22.9242 18.7194 23.2127 18.4514 23.4119C18.4308 23.3707 18.4171 23.3226 18.3896 23.2539C18.3896 23.2471 18.3896 23.2471 18.3827 23.2402C18.2866 22.9791 18.2247 22.8692 18.1079 22.7456L18.0118 22.8417C18.1148 22.9379 18.1629 23.041 18.2591 23.2814C18.2591 23.2883 18.2591 23.2883 18.266 23.2951C18.3003 23.3844 18.3209 23.4394 18.3415 23.4875C18.1629 23.6386 18.0049 23.6661 17.84 23.5905C17.6958 23.5287 17.5584 23.3982 17.3385 23.1509C17.3248 23.1371 17.3111 23.1165 17.2973 23.0959C17.2905 23.0891 17.2836 23.0822 17.2767 23.0684C17.263 23.0547 17.263 23.0547 17.2561 23.041C17.0019 22.7456 16.8508 22.5876 16.6859 22.4983C17.0706 22.2784 17.4141 22.0311 17.7232 21.7426C18.0118 21.9555 18.3346 22.2716 18.5133 22.567ZM18.6094 20.3412C18.0186 21.5296 16.9744 22.3677 15.573 22.8761C14.3777 23.3089 12.9625 23.4875 11.4993 23.4325C8.97809 23.3432 6.79352 22.4639 5.76994 20.8014C5.08296 19.6954 4.85626 18.2871 4.91809 16.3499C4.9387 15.8209 4.96618 15.3469 5.03488 14.4813C5.11044 13.5058 5.13105 13.2241 5.15166 12.7845C5.1654 12.4685 5.1654 12.1456 5.15853 11.8021C5.14479 11.1976 5.11044 10.7167 5.02114 9.63815C4.89748 8.20924 4.86313 7.5841 4.87687 6.80095C4.89748 5.77049 5.03488 4.86369 5.3234 4.00498C5.79054 2.61042 6.64926 1.66927 7.88581 1.05787C8.92314 0.54951 10.1803 0.288461 11.8909 0.151066C13.4915 0.151066 14.6593 0.29533 15.6692 0.666295C16.8783 1.11283 17.7782 1.89597 18.3965 3.09817C18.7949 4.07367 19.0285 5.12474 19.1521 6.33381C19.2483 7.25435 19.2689 7.99628 19.2758 9.67936V10.2152C19.2827 11.0464 19.2964 11.6304 19.3308 12.2143C19.3445 12.441 19.3514 12.5372 19.3857 13.0799C19.4613 14.2477 19.4888 14.8523 19.4956 15.553C19.5094 17.5246 19.2621 19.0428 18.6094 20.3412ZM20.7116 12.8188C20.7047 12.8188 20.6978 12.812 20.691 12.812C20.5673 12.7707 20.5261 12.7433 20.4849 12.6952L20.375 12.7776C20.4368 12.86 20.4986 12.8944 20.636 12.9425C20.6085 13.1898 20.4917 13.2791 20.2925 13.2585C20.1139 13.2447 19.8803 13.1348 19.688 13.0043C19.633 12.9631 19.5781 12.9356 19.5231 12.9081C19.5162 12.9081 19.5094 12.9013 19.5025 12.9013C19.475 12.5234 19.475 12.4273 19.4613 12.228C19.4544 12.1044 19.4475 11.9807 19.4407 11.8571C19.8254 11.8639 20.2032 11.9807 20.4917 12.1937C20.5948 12.2692 20.7184 12.4135 20.7734 12.5372C20.8421 12.654 20.8284 12.757 20.7116 12.8188Z" fill="black"/>
  <path d="M12.9257 7.18102C12.9326 7.53137 13.0013 7.91608 12.9395 8.28704C12.8433 8.46565 12.6647 8.48626 12.5067 8.55496C12.2869 8.52061 12.1014 8.37635 12.0121 8.17025C11.9571 7.7512 12.0258 7.35276 12.0464 6.93371C12.0464 6.91997 12.3075 6.94058 12.541 7.00927C12.7403 7.0711 12.9257 7.17415 12.9257 7.18102Z" fill="white"/>
  <path d="M10.9812 7.20831C10.7889 7.9365 11.2354 9.12496 11.9705 8.14946C11.9155 7.73728 11.9773 7.33884 11.998 6.93352C12.0048 6.89918 10.9881 7.16022 10.9812 7.20831Z" fill="white"/>
  <path d="M13.0077 7.50378C12.994 7.29769 12.9871 7.21526 12.9871 7.11221V7.06412L12.939 7.05038L12.0734 6.78246V6.73438L11.9841 6.75498H11.9773V6.76185L11.0018 7.00916L10.9674 7.01603L10.9537 7.05038C10.8025 7.41448 10.8369 7.96405 11.0292 8.30067C11.2491 8.68537 11.6063 8.69224 11.9704 8.25258C12.0734 8.4518 12.2658 8.5892 12.4856 8.62355H12.5062L12.5268 8.61668C12.5543 8.60294 12.5818 8.59607 12.6299 8.57546C12.6368 8.57546 12.6368 8.57546 12.6436 8.56859C12.8429 8.49989 12.9253 8.44493 12.994 8.31441L13.0009 8.30754V8.2938C13.0215 8.17015 13.0283 8.03962 13.0283 7.89536C13.0283 7.79231 13.0215 7.69614 13.0077 7.50378ZM11.9086 7.2496C11.9017 7.37326 11.8948 7.42135 11.888 7.49004C11.8742 7.74422 11.8742 7.93658 11.8948 8.12893C11.572 8.54111 11.3178 8.54111 11.146 8.23197C10.9812 7.94345 10.9468 7.4557 11.0705 7.13282L11.9361 6.91299C11.9292 7.00229 11.9223 7.0916 11.9086 7.2496ZM12.8703 8.26632C12.8222 8.34876 12.7604 8.38998 12.5955 8.44493C12.5887 8.44493 12.5887 8.44493 12.5818 8.4518C12.5406 8.46554 12.5131 8.47928 12.4925 8.48615C12.307 8.4518 12.149 8.32815 12.0734 8.15641C12.0528 7.97092 12.0528 7.77857 12.0666 7.52439C12.0734 7.4557 12.0734 7.40761 12.0872 7.28395C12.1009 7.12595 12.1078 7.02977 12.1078 6.94047L12.8566 7.16717C12.8566 7.25647 12.8635 7.33891 12.8772 7.51752C12.8909 7.70301 12.8978 7.79918 12.8978 7.9091C12.8978 8.03962 12.8909 8.15641 12.8703 8.26632Z" fill="black"/>
  <path d="M6.84516 4.18773C7.47717 6.64709 11.4135 6.01507 11.2624 3.54885C11.0838 0.594867 6.24062 1.16505 6.84516 4.18773Z" fill="white"/>
  <path d="M11.3315 3.54205C11.2903 2.8276 10.9743 2.27115 10.4522 1.9208C9.98505 1.60479 9.36677 1.48113 8.75537 1.5567C8.14396 1.63914 7.58065 1.91393 7.20968 2.34672C6.7975 2.8276 6.63949 3.45961 6.78376 4.1878C7.42951 6.71586 11.4826 6.10445 11.3315 3.54205ZM6.90741 4.17406C6.77002 3.48022 6.92115 2.88943 7.30586 2.44289C7.65621 2.03758 8.18518 1.76966 8.76911 1.6941C9.35303 1.61853 9.93696 1.73531 10.3766 2.03758C10.8644 2.36733 11.1598 2.88256 11.201 3.56266C11.3453 5.96019 7.51882 6.53725 6.90741 4.17406Z" fill="black"/>
  <path d="M7.93101 4.50392C8.29903 4.50392 8.59737 4.18097 8.59737 3.7826C8.59737 3.38423 8.29903 3.06128 7.93101 3.06128C7.56299 3.06128 7.26465 3.38423 7.26465 3.7826C7.26465 4.18097 7.56299 4.50392 7.93101 4.50392Z" fill="black"/>
  <path d="M8.2332 4.13293C8.32046 4.13293 8.3912 4.04988 8.3912 3.94745C8.3912 3.84501 8.32046 3.76196 8.2332 3.76196C8.14594 3.76196 8.0752 3.84501 8.0752 3.94745C8.0752 4.04988 8.14594 4.13293 8.2332 4.13293Z" fill="white"/>
  <path d="M12.3663 3.72786C12.854 6.55131 17.4705 5.80251 16.8041 2.95845C16.2064 0.402912 12.2014 1.11049 12.3663 3.72786Z" fill="white"/>
  <path d="M16.8661 2.9448C16.2547 0.313696 12.1329 1.03502 12.2978 3.73481V3.74168C12.5245 5.07441 13.7129 5.75451 15.0251 5.53468C15.6227 5.43164 16.1586 5.14311 16.5089 4.71718C16.8936 4.24317 17.031 3.63177 16.8661 2.9448ZM16.4059 4.63475C16.0761 5.03319 15.5746 5.30798 15.0045 5.40416C13.761 5.61025 12.6481 4.97136 12.4283 3.72108C12.2772 1.17928 16.1654 0.499178 16.7425 2.97228C16.8936 3.6249 16.77 4.19509 16.4059 4.63475Z" fill="black"/>
  <path d="M13.5003 4.3257C13.8607 4.3257 14.1529 4.00275 14.1529 3.60438C14.1529 3.206 13.8607 2.88306 13.5003 2.88306C13.1398 2.88306 12.8477 3.206 12.8477 3.60438C12.8477 4.00275 13.1398 4.3257 13.5003 4.3257Z" fill="black"/>
  <path d="M13.8025 3.95471C13.886 3.95471 13.9536 3.87166 13.9536 3.76922C13.9536 3.66678 13.886 3.58374 13.8025 3.58374C13.719 3.58374 13.6514 3.66678 13.6514 3.76922C13.6514 3.87166 13.719 3.95471 13.8025 3.95471Z" fill="white"/>
  <path d="M11.1235 5.72425C10.5807 5.77234 10.1411 6.41122 10.4227 6.91958C10.7937 7.59281 11.6249 6.85775 12.1402 6.92645C12.7378 6.94019 13.2256 7.55846 13.6996 7.03636C14.2286 6.45931 13.4729 5.89599 12.8752 5.64868L11.1235 5.72425Z" fill="#F6D2A2"/>
  <path d="M13.7682 6.18434C13.5827 5.95076 13.2598 5.7378 12.9095 5.59354L12.8957 5.58667H12.882L11.1233 5.65537C10.5119 5.71032 10.0723 6.41791 10.3677 6.95374C10.4845 7.15984 10.6425 7.26288 10.8554 7.27662C11.0134 7.28349 11.1783 7.24914 11.4325 7.15984C11.4531 7.15297 11.4806 7.1461 11.5149 7.13236C11.8584 7.01557 11.9958 6.98122 12.1332 7.00183H12.1401C12.3049 7.00183 12.4423 7.04992 12.7034 7.15297C12.9919 7.26975 13.0812 7.3041 13.2255 7.31784C13.4247 7.33158 13.5964 7.26288 13.7544 7.09114C14.0224 6.79574 14.0086 6.47973 13.7682 6.18434ZM13.6514 6.99496C13.5209 7.13923 13.3903 7.18731 13.2323 7.18044C13.1087 7.17357 13.0262 7.13923 12.7515 7.02931C12.4767 6.91253 12.3255 6.87131 12.1469 6.86444C11.9752 6.84383 11.8309 6.87818 11.4668 7.00183C11.4325 7.01557 11.405 7.02244 11.3844 7.02931C10.8829 7.20105 10.6425 7.18731 10.4776 6.88505C10.2303 6.43851 10.6081 5.83398 11.1233 5.78589L12.8614 5.71719C13.1911 5.85459 13.4865 6.05381 13.6583 6.26677C13.8644 6.51408 13.8712 6.76139 13.6514 6.99496Z" fill="#231F20"/>
  <path d="M13.0123 5.42879C12.7993 4.64564 11.0132 4.76242 11.0544 5.6967C11.1437 6.39055 13.2184 6.20506 13.0123 5.42879Z" fill="black"/>
</svg>
