<svg width="24" height="25" viewBox="0 0 24 25" fill="none" xmlns="http://www.w3.org/2000/svg">
  <path d="M13.675 7.98461L12.8537 9.40683L10.0448 4.54165L1.42195 19.475H7.26017C7.26017 20.2605 7.89692 20.8972 8.68239 20.8972H1.42195C0.913887 20.8972 0.444463 20.626 0.190474 20.186C-0.0635155 19.746 -0.0634897 19.2039 0.190542 18.7639L8.81336 3.83054C9.06741 3.39048 9.53693 3.11938 10.0451 3.11938C10.5532 3.11938 11.0227 3.39048 11.2768 3.83054L13.675 7.98461V7.98461Z" fill="#00C58E"/>
  <path d="M19.8999 18.7639L14.4966 9.40684L13.6753 7.98462L12.854 9.40684L7.45128 18.7639C7.19725 19.2039 7.19723 19.746 7.45122 20.186C7.7052 20.626 8.17463 20.8972 8.68269 20.8972H18.6667C19.1749 20.8972 19.6445 20.6263 19.8986 20.1862C20.1527 19.7462 20.1528 19.204 19.8987 18.7639H19.8999ZM8.68269 19.475L13.6753 10.8291L18.6667 19.475H8.68269L8.68269 19.475Z" fill="#2F495E"/>
  <path d="M23.7625 20.186C23.5085 20.626 23.0391 20.8972 22.5311 20.8972H18.6662C19.4517 20.8972 20.0884 20.2604 20.0884 19.4749H22.5281L15.6055 7.48501L14.4961 9.40678L13.6748 7.98456L14.3741 6.7739C14.6281 6.33384 15.0976 6.06274 15.6058 6.06274C16.1139 6.06274 16.5834 6.33384 16.8375 6.7739L23.7625 18.7638C24.0166 19.2039 24.0166 19.746 23.7625 20.186V20.186Z" fill="#108775"/>
</svg>
