<svg width="123" height="135" viewBox="0 0 123 135" fill="none" xmlns="http://www.w3.org/2000/svg">
  <g clip-path="url(#python)">
    <path d="M54.9188 0.000919274C50.3351 0.0222173 45.9578 0.413137 42.1063 1.09467C30.7601 3.09917 28.7 7.29477 28.7 15.0322V25.2509H55.5125V28.6572H28.7H18.6375C10.8451 28.6572 4.02178 33.3409 1.88754 42.2509C-0.574285 52.4639 -0.68348 58.8369 1.88754 69.5009C3.79346 77.4388 8.34508 83.0947 16.1375 83.0947H25.3563V70.8447C25.3563 61.9948 33.0134 54.1884 42.1063 54.1884H68.8875C76.3425 54.1884 82.2938 48.0503 82.2938 40.5634V15.0322C82.2938 7.76583 76.1638 2.30739 68.8875 1.09467C64.2815 0.327944 59.5024 -0.020379 54.9188 0.000919274ZM40.4188 8.21967C43.1883 8.21967 45.45 10.5183 45.45 13.3447C45.45 16.161 43.1883 18.4384 40.4188 18.4384C37.6393 18.4384 35.3875 16.161 35.3875 13.3447C35.3875 10.5183 37.6393 8.21967 40.4188 8.21967Z" fill="url(#py1)"/>
    <path d="M85.6367 28.6572V40.5634C85.6367 49.7942 77.8108 57.5634 68.8867 57.5634H42.1055C34.7696 57.5634 28.6992 63.8419 28.6992 71.1884V96.7197C28.6992 103.986 35.0178 108.26 42.1055 110.345C50.5928 112.84 58.7317 113.291 68.8867 110.345C75.6369 108.39 82.293 104.457 82.293 96.7197V86.5009H55.5117V83.0947H82.293H95.6992C103.492 83.0947 106.395 77.6593 109.105 69.5009C111.905 61.102 111.786 53.0251 109.105 42.2509C107.18 34.4935 103.502 28.6572 95.6992 28.6572H85.6367ZM70.5742 93.3134C73.3537 93.3134 75.6055 95.5908 75.6055 98.4072C75.6055 101.234 73.3537 103.532 70.5742 103.532C67.8047 103.532 65.543 101.234 65.543 98.4072C65.543 95.5908 67.8047 93.3134 70.5742 93.3134Z" fill="url(#py2)"/>
    <path opacity="0.44382" d="M55.8177 134.668C75.6618 134.668 91.7487 131.549 91.7487 127.701C91.7487 123.853 75.6618 120.733 55.8177 120.733C35.9736 120.733 19.8867 123.853 19.8867 127.701C19.8867 131.549 35.9736 134.668 55.8177 134.668Z" fill="url(#py3)"/>
  </g>
  <defs>
    <linearGradient id="py1" x1="-3.33885e-07" y1="-2.90036e-07" x2="61.8267" y2="52.6849" gradientUnits="userSpaceOnUse">
      <stop stop-color="#5A9FD4"/>
      <stop offset="1" stop-color="#306998"/>
    </linearGradient>
    <linearGradient id="py2" x1="69.9299" y1="97.548" x2="47.7488" y2="66.4657" gradientUnits="userSpaceOnUse">
      <stop stop-color="#FFD43B"/>
      <stop offset="1" stop-color="#FFE873"/>
    </linearGradient>
    <radialGradient id="py3" cx="0" cy="0" r="1" gradientUnits="userSpaceOnUse" gradientTransform="translate(55.8177 127.701) rotate(-90) scale(6.96732 30.6243)">
      <stop stop-color="#B8B8B8" stop-opacity="0.498039"/>
      <stop offset="1" stop-color="#7F7F7F" stop-opacity="0"/>
    </radialGradient>
    <clipPath id="python">
      <rect width="122.76" height="134.668" fill="white"/>
    </clipPath>
  </defs>
</svg>
