<svg width="25" height="26" viewBox="0 0 25 26" fill="none" xmlns="http://www.w3.org/2000/svg">
  <g clip-path="url(#react)">
    <path d="M12.8653 15C13.9688 15 14.8633 14.1055 14.8633 13.002C14.8633 11.8985 13.9688 11.0039 12.8653 11.0039C11.7618 11.0039 10.8672 11.8985 10.8672 13.002C10.8672 14.1055 11.7618 15 12.8653 15Z" fill="#61DAFB"/>
    <path fill-rule="evenodd" clip-rule="evenodd" d="M3.31267 11.7704C2.83039 12.2058 2.63092 12.6228 2.63092 13.0021C2.63092 13.3813 2.83039 13.7984 3.31267 14.2337C3.7949 14.6691 4.52006 15.0834 5.45762 15.4414C7.32938 16.1561 9.94812 16.6083 12.8649 16.6083C15.7817 16.6083 18.4004 16.1561 20.2722 15.4414C21.2098 15.0834 21.9349 14.6691 22.4171 14.2337C22.8994 13.7984 23.0989 13.3813 23.0989 13.0021C23.0989 12.6228 22.8994 12.2058 22.4171 11.7704C21.9349 11.3351 21.2098 10.9207 20.2722 10.5627C18.4004 9.84806 15.7817 9.39581 12.8649 9.39581C9.94812 9.39581 7.32938 9.84806 5.45762 10.5627C4.52006 10.9207 3.7949 11.3351 3.31267 11.7704ZM5.10995 9.65219C7.11854 8.88527 9.86047 8.42114 12.8649 8.42114C15.8693 8.42114 18.6113 8.88527 20.6199 9.65219C21.6225 10.035 22.4674 10.5027 23.0702 11.0469C23.673 11.5911 24.0736 12.2509 24.0736 13.0021C24.0736 13.7532 23.673 14.4131 23.0702 14.9572C22.4674 15.5014 21.6225 15.9691 20.6199 16.352C18.6113 17.1189 15.8693 17.583 12.8649 17.583C9.86047 17.583 7.11854 17.1189 5.10995 16.352C4.10733 15.9691 3.26239 15.5014 2.65957 14.9572C2.05679 14.4131 1.65625 13.7532 1.65625 13.0021C1.65625 12.2509 2.05679 11.5911 2.65957 11.0469C3.26239 10.5027 4.10733 10.035 5.10995 9.65219Z" fill="#61DAFB"/>
    <path fill-rule="evenodd" clip-rule="evenodd" d="M7.04833 7.80209C7.36529 9.78043 8.28299 12.2744 9.74138 14.8005C11.1998 17.3265 12.9008 19.3682 14.4556 20.6319C15.2344 21.2649 15.9558 21.6857 16.574 21.8856C17.1921 22.0856 17.653 22.0499 17.9815 21.8602C18.31 21.6706 18.5714 21.2893 18.7073 20.654C18.8432 20.0187 18.8394 19.1835 18.6807 18.1926C18.3637 16.2142 17.446 13.7202 15.9876 11.1942C14.5292 8.66818 12.8282 6.62642 11.2734 5.36276C10.4946 4.7298 9.77315 4.30898 9.15504 4.10901C8.53686 3.90903 8.07596 3.9448 7.7475 4.13443C7.41904 4.32407 7.15762 4.70533 7.02172 5.34068C6.88584 5.97596 6.88957 6.81116 7.04833 7.80209ZM6.06861 5.13682C6.23846 4.34273 6.60966 3.66592 7.26017 3.29035C7.91068 2.91477 8.68242 2.93172 9.45504 3.18167C10.2277 3.43164 11.0553 3.92951 11.8881 4.6064C13.5566 5.96243 15.3295 8.10495 16.8317 10.7069C18.3339 13.3088 19.3029 15.9154 19.6431 18.0384C19.8128 19.0981 19.8302 20.0637 19.6604 20.8578C19.4905 21.6519 19.1193 22.3287 18.4688 22.7043C17.8183 23.0799 17.0466 23.0629 16.274 22.813C15.5013 22.563 14.6737 22.0651 13.8409 21.3883C12.1724 20.0322 10.3995 17.8897 8.8973 15.2878C7.39508 12.6859 6.42606 10.0792 6.08594 7.95628C5.91616 6.89658 5.89875 5.93098 6.06861 5.13682Z" fill="#61DAFB"/>
    <path fill-rule="evenodd" clip-rule="evenodd" d="M7.02758 20.6593C7.16348 21.2947 7.4249 21.6759 7.75336 21.8656C8.08182 22.0552 8.54272 22.091 9.1609 21.891C9.77901 21.691 10.5004 21.2702 11.2792 20.6372C12.834 19.3736 14.5351 17.3318 15.9935 14.8058C17.4519 12.2798 18.3696 9.78577 18.6865 7.80744C18.8453 6.8165 18.849 5.98131 18.7131 5.34603C18.5772 4.71068 18.3158 4.32941 17.9874 4.13978C17.6589 3.95014 17.198 3.91437 16.5798 4.11436C15.9617 4.31432 15.2403 4.73514 14.4615 5.36811C12.9067 6.63177 11.2056 8.67353 9.74724 11.1995C8.28885 13.7256 7.37114 16.2196 7.05419 18.1979C6.89543 19.1888 6.8917 20.024 7.02758 20.6593ZM6.0918 18.0437C6.43192 15.9208 7.40094 13.3141 8.90316 10.7122C10.4054 8.11029 12.1783 5.96777 13.8467 4.61174C14.6796 3.93486 15.5071 3.43698 16.2798 3.18701C17.0524 2.93706 17.8242 2.92012 18.4747 3.29569C19.1252 3.67126 19.4964 4.34808 19.6662 5.14217C19.8361 5.93632 19.8187 6.90192 19.6489 7.96163C19.3088 10.0846 18.3398 12.6912 16.8376 15.2931C15.3353 17.8951 13.5624 20.0376 11.894 21.3936C11.0611 22.0705 10.2336 22.5684 9.4609 22.8183C8.68828 23.0683 7.91654 23.0852 7.26603 22.7097C6.61552 22.3341 6.24432 21.6573 6.07447 20.8632C5.90461 20.069 5.92202 19.1034 6.0918 18.0437Z" fill="#61DAFB"/>
  </g>
  <defs>
    <clipPath id="react">
      <rect width="24" height="25.6944" fill="white" transform="translate(0.65625)"/>
    </clipPath>
  </defs>
</svg>
