<svg width="24" height="25" viewBox="0 0 24 25" fill="none" xmlns="http://www.w3.org/2000/svg">
  <g clip-path="url(#svelte)">
    <path d="M20.6852 3.23302C18.4666 0.0397978 14.0498 -0.895796 10.8746 1.11776L5.27722 4.69742C3.75067 5.65336 2.69227 7.21946 2.38696 8.98895C2.12236 10.4737 2.34625 11.9991 3.05864 13.3212C2.57015 14.0534 2.24448 14.8669 2.10201 15.7212C1.77634 17.5313 2.20378 19.4025 3.26218 20.8873C5.50111 24.0805 9.89756 25.0161 13.0728 23.0025L18.6701 19.4432C20.1967 18.4873 21.2551 16.9212 21.5604 15.1517C21.825 13.6669 21.6011 12.1415 20.8887 10.8195C21.3772 10.0873 21.7028 9.2737 21.8453 8.41946C22.1913 6.58895 21.7639 4.71776 20.6852 3.23302Z" fill="#FF3E00"/>
    <path d="M10.3243 21.1922C8.51283 21.66 6.61991 20.9481 5.56151 19.4227C4.91018 18.5278 4.66594 17.4091 4.84912 16.3108C4.88983 16.1278 4.93054 15.9651 4.97125 15.782L5.07302 15.4566L5.35797 15.66C6.02965 16.1481 6.76239 16.5142 7.5562 16.7583L7.75974 16.8193L7.73938 17.0227C7.71903 17.3074 7.80044 17.6125 7.96327 17.8566C8.28894 18.3244 8.85885 18.5481 9.4084 18.4057C9.53053 18.3651 9.65265 18.3244 9.75442 18.2634L15.3314 14.704C15.6164 14.521 15.7995 14.2566 15.8606 13.9312C15.9217 13.6057 15.8402 13.26 15.6571 12.9956C15.3314 12.5278 14.7615 12.3244 14.2119 12.4668C14.0898 12.5074 13.9677 12.5481 13.8659 12.6091L11.7288 13.9718C11.3827 14.1956 10.996 14.3583 10.5889 14.46C8.77743 14.9278 6.88452 14.2159 5.82611 12.6905C5.19514 11.7956 4.93054 10.6769 5.13408 9.57862C5.31726 8.52099 5.96859 7.56506 6.88452 6.99556L12.4818 3.43624C12.8279 3.21251 13.2146 3.0498 13.6217 2.92777C15.4332 2.45997 17.3261 3.17184 18.3845 4.69726C19.0358 5.59217 19.2801 6.71082 19.0969 7.80912C19.0562 7.99217 19.0155 8.15489 18.9544 8.33794L18.8526 8.66336L18.5677 8.45997C17.896 7.97184 17.1633 7.60573 16.3695 7.36167L16.1659 7.30065L16.1863 7.09726C16.2066 6.81251 16.1252 6.50743 15.9624 6.26336C15.6367 5.79556 15.0668 5.59217 14.5172 5.73455C14.3951 5.77523 14.273 5.8159 14.1712 5.87692L8.59425 9.43624C8.30929 9.61929 8.12611 9.8837 8.06504 10.2091C8.00398 10.5345 8.0854 10.8803 8.26858 11.1447C8.59425 11.6125 9.16416 11.8159 9.71371 11.6735C9.83584 11.6329 9.95796 11.5922 10.0597 11.5312L12.1969 10.1684C12.5429 9.94472 12.9296 9.78201 13.3367 9.65997C15.1482 9.19218 17.0411 9.90404 18.0995 11.4295C18.7509 12.3244 18.9951 13.443 18.8119 14.5413C18.6287 15.599 17.9774 16.5549 17.0615 17.1244L11.4642 20.6837C11.1181 20.9074 10.7314 21.0701 10.3243 21.1922Z" fill="white"/>
  </g>
  <defs>
    <clipPath id="svelte">
      <rect width="24" height="24" fill="white" transform="translate(0 0.0600586)"/>
    </clipPath>
  </defs>
</svg>
