<svg width="24" height="24" viewBox="0 0 24 24" fill="none" xmlns="http://www.w3.org/2000/svg">
  <g clip-path="url(#ts)">
    <path d="M0.9 0H23.1C23.5971 0 24 0.402942 24 0.9V23.1C24 23.5971 23.5971 24 23.1 24H0.9C0.402942 24 0 23.5971 0 23.1V0.9C0 0.402942 0.402942 0 0.9 0ZM13.3412 12.768V10.7996H4.79982V12.768H7.84929V21.5322H10.2768V12.768H13.3412ZM14.3091 21.3008C14.7006 21.5004 15.1636 21.6501 15.6981 21.7499C16.2326 21.8497 16.7959 21.8996 17.3882 21.8996C17.9654 21.8996 18.5137 21.8447 19.0331 21.735C19.5526 21.6252 20.0081 21.4443 20.3995 21.1923C20.791 20.9403 21.1009 20.611 21.3293 20.2043C21.5576 19.7976 21.6718 19.2949 21.6718 18.6961C21.6718 18.262 21.6066 17.8816 21.4761 17.5547C21.3456 17.2278 21.1574 16.9372 20.9115 16.6827C20.6656 16.4282 20.3706 16.1999 20.0269 15.9978C19.683 15.7958 19.2954 15.6049 18.8637 15.4253C18.5476 15.2955 18.264 15.1695 18.013 15.0473C17.7621 14.925 17.5488 14.8002 17.3731 14.673C17.1975 14.5458 17.062 14.4111 16.9666 14.2688C16.8713 14.1267 16.8235 13.9657 16.8235 13.7861C16.8235 13.6214 16.8663 13.473 16.9516 13.3408C17.0369 13.2085 17.1573 13.095 17.313 13.0002C17.4685 12.9054 17.6592 12.8318 17.8851 12.7794C18.111 12.727 18.3618 12.7008 18.6379 12.7008C18.8386 12.7008 19.0507 12.7158 19.274 12.7457C19.4974 12.7757 19.722 12.8218 19.9478 12.8841C20.1737 12.9465 20.3933 13.0251 20.6066 13.12C20.8199 13.2148 21.0169 13.3245 21.1975 13.4492V11.2113C20.8312 11.0716 20.4309 10.968 19.9968 10.9007C19.5626 10.8333 19.0645 10.7996 18.5024 10.7996C17.9302 10.7996 17.3882 10.8607 16.8762 10.983C16.3643 11.1053 15.9139 11.2962 15.525 11.5556C15.136 11.8151 14.8286 12.1457 14.6027 12.5473C14.3768 12.949 14.2639 13.4293 14.2639 13.9881C14.2639 14.7018 14.471 15.3105 14.8851 15.8144C15.2991 16.3184 15.9277 16.7451 16.7709 17.0944C17.1021 17.2291 17.4108 17.3613 17.6969 17.4911C17.9829 17.6208 18.2301 17.7556 18.4384 17.8952C18.6467 18.035 18.811 18.1871 18.9315 18.3518C19.0519 18.5165 19.1122 18.7036 19.1122 18.9132C19.1122 19.0679 19.0746 19.2114 18.9992 19.3435C18.924 19.4758 18.8098 19.5906 18.6568 19.6878C18.5036 19.7851 18.3129 19.8613 18.0846 19.9161C17.8562 19.971 17.589 19.9985 17.2828 19.9985C16.7609 19.9985 16.2439 19.9074 15.732 19.7253C15.2201 19.5432 14.7458 19.27 14.3091 18.9057V21.3008Z" fill="#3178C6"/>
  </g>
  <defs>
    <clipPath id="ts">
      <rect width="24" height="24" fill="white"/>
    </clipPath>
  </defs>
</svg>
