<svg width="24" height="24" viewBox="0 0 24 24" fill="none" xmlns="http://www.w3.org/2000/svg">
  <g clip-path="url(#vanillajs)">
    <rect width="24" height="24" fill="#F7DF1D"/>
    <path d="M21.2407 8.45801L20.7738 8.37378C20.8263 8.18579 20.9166 8.04663 21.0448 7.9563C21.173 7.86597 21.3634 7.8208 21.6161 7.8208C21.8456 7.8208 22.0165 7.84827 22.1288 7.9032C22.2411 7.95691 22.3198 8.02588 22.365 8.11011C22.4114 8.19312 22.4346 8.34631 22.4346 8.5697L22.4291 9.17029C22.4291 9.34119 22.437 9.46753 22.4529 9.54932C22.47 9.62988 22.5011 9.71655 22.5463 9.80933H22.0372C22.0238 9.77515 22.0073 9.72449 21.9878 9.65735C21.9792 9.62683 21.9731 9.60669 21.9695 9.59692C21.8816 9.68237 21.7876 9.74646 21.6875 9.78918C21.5874 9.83191 21.4806 9.85327 21.3671 9.85327C21.1669 9.85327 21.0088 9.79895 20.8928 9.69031C20.7781 9.58167 20.7207 9.44434 20.7207 9.27832C20.7207 9.16846 20.7469 9.0708 20.7994 8.98535C20.8519 8.89868 20.9252 8.83276 21.0192 8.7876C21.1144 8.74121 21.2511 8.70093 21.4293 8.66675C21.6698 8.62158 21.8364 8.57947 21.9292 8.54041V8.48914C21.9292 8.39026 21.9048 8.32007 21.856 8.27856C21.8071 8.23584 21.715 8.21448 21.5795 8.21448C21.4879 8.21448 21.4165 8.23279 21.3652 8.26941C21.314 8.30481 21.2725 8.36768 21.2407 8.45801ZM21.9292 8.87549C21.8633 8.89746 21.7589 8.92371 21.6161 8.95422C21.4733 8.98474 21.3799 9.01465 21.3359 9.04395C21.2688 9.09155 21.2352 9.15198 21.2352 9.22522C21.2352 9.29724 21.2621 9.3595 21.3158 9.41199C21.3695 9.46448 21.4379 9.49072 21.5209 9.49072C21.6136 9.49072 21.7021 9.46021 21.7864 9.39917C21.8486 9.35278 21.8895 9.29602 21.9091 9.22888C21.9225 9.18494 21.9292 9.10132 21.9292 8.97803V8.87549Z" fill="black"/>
    <path d="M19.8125 9.80933V7.125H20.327V9.80933H19.8125Z" fill="black"/>
    <path d="M18.7695 9.80933V7.125H19.2841V9.80933H18.7695Z" fill="black"/>
    <path d="M17.7256 7.60107V7.125H18.2401V7.60107H17.7256ZM17.7256 9.80933V7.86475H18.2401V9.80933H17.7256Z" fill="black"/>
    <path d="M17.2021 9.80933H16.6876V8.81689C16.6876 8.60693 16.6766 8.47144 16.6547 8.4104C16.6327 8.34814 16.5967 8.29993 16.5466 8.26575C16.4978 8.23157 16.4386 8.21448 16.369 8.21448C16.2799 8.21448 16.2 8.23889 16.1292 8.28772C16.0583 8.33655 16.0095 8.40125 15.9827 8.48181C15.957 8.56238 15.9442 8.7113 15.9442 8.92859V9.80933H15.4297V7.86475H15.9076V8.15039C16.0773 7.93066 16.2909 7.8208 16.5485 7.8208C16.662 7.8208 16.7657 7.84155 16.8597 7.88306C16.9537 7.92334 17.0245 7.97522 17.0721 8.0387C17.121 8.10217 17.1545 8.17419 17.1729 8.25476C17.1924 8.33533 17.2021 8.45068 17.2021 8.60083V9.80933Z" fill="black"/>
    <path d="M13.73 8.45801L13.2631 8.37378C13.3156 8.18579 13.4059 8.04663 13.5341 7.9563C13.6622 7.86597 13.8527 7.8208 14.1053 7.8208C14.3348 7.8208 14.5057 7.84827 14.618 7.9032C14.7303 7.95691 14.8091 8.02588 14.8542 8.11011C14.9006 8.19312 14.9238 8.34631 14.9238 8.5697L14.9183 9.17029C14.9183 9.34119 14.9263 9.46753 14.9421 9.54932C14.9592 9.62988 14.9904 9.71655 15.0355 9.80933H14.5265C14.5131 9.77515 14.4966 9.72449 14.4771 9.65735C14.4685 9.62683 14.4624 9.60669 14.4587 9.59692C14.3708 9.68237 14.2769 9.74646 14.1768 9.78918C14.0767 9.83191 13.9698 9.85327 13.8563 9.85327C13.6561 9.85327 13.498 9.79895 13.3821 9.69031C13.2673 9.58167 13.21 9.44434 13.21 9.27832C13.21 9.16846 13.2362 9.0708 13.2887 8.98535C13.3412 8.89868 13.4144 8.83276 13.5084 8.7876C13.6036 8.74121 13.7404 8.70093 13.9186 8.66675C14.1591 8.62158 14.3257 8.57947 14.4185 8.54041V8.48914C14.4185 8.39026 14.394 8.32007 14.3452 8.27856C14.2964 8.23584 14.2042 8.21448 14.0687 8.21448C13.9772 8.21448 13.9058 8.23279 13.8545 8.26941C13.8032 8.30481 13.7617 8.36768 13.73 8.45801ZM14.4185 8.87549C14.3525 8.89746 14.2482 8.92371 14.1053 8.95422C13.9625 8.98474 13.8691 9.01465 13.8252 9.04395C13.7581 9.09155 13.7245 9.15198 13.7245 9.22522C13.7245 9.29724 13.7513 9.3595 13.8051 9.41199C13.8588 9.46448 13.9271 9.49072 14.0101 9.49072C14.1029 9.49072 14.1914 9.46021 14.2756 9.39917C14.3379 9.35278 14.3788 9.29602 14.3983 9.22888C14.4117 9.18494 14.4185 9.10132 14.4185 8.97803V8.87549Z" fill="black"/>
    <path d="M11.7417 9.80933L10.7822 7.125H11.37L12.0493 9.11169L12.7067 7.125H13.2816L12.3203 9.80933H11.7417Z" fill="black"/>
    <path d="M13.3799 18.5889L15.5947 18.3735C15.728 19.1169 15.9972 19.663 16.4022 20.0116C16.8124 20.3602 17.3635 20.5345 18.0557 20.5345C18.7888 20.5345 19.34 20.3807 19.7091 20.0731C20.0834 19.7604 20.2705 19.3964 20.2705 18.9811C20.2705 18.7145 20.191 18.4889 20.0321 18.3043C19.8783 18.1146 19.6066 17.9506 19.2169 17.8121C18.9503 17.7198 18.3428 17.5558 17.3943 17.3199C16.1741 17.0175 15.3179 16.6458 14.8257 16.2048C14.1335 15.5845 13.7875 14.8282 13.7875 13.9362C13.7875 13.3619 13.949 12.8262 14.272 12.3289C14.6001 11.8264 15.0692 11.4445 15.6793 11.183C16.2946 10.9215 17.0354 10.7908 17.9019 10.7908C19.3169 10.7908 20.3807 11.101 21.0934 11.7213C21.8112 12.3417 22.188 13.1697 22.2239 14.2053L19.9475 14.3053C19.8501 13.726 19.6399 13.3107 19.3169 13.0594C18.999 12.8031 18.5197 12.6749 17.8788 12.6749C17.2174 12.6749 16.6996 12.8108 16.3253 13.0825C16.0844 13.2568 15.9639 13.4901 15.9639 13.7823C15.9639 14.049 16.0767 14.2771 16.3022 14.4668C16.5894 14.7078 17.2866 14.959 18.394 15.2205C19.5015 15.4819 20.3192 15.7537 20.8473 16.0356C21.3805 16.3125 21.7958 16.6945 22.0931 17.1815C22.3956 17.6635 22.5469 18.2607 22.5469 18.9734C22.5469 19.6194 22.3674 20.2244 22.0085 20.7883C21.6497 21.3523 21.1421 21.7727 20.4858 22.0496C19.8296 22.3213 19.0118 22.4572 18.0326 22.4572C16.6073 22.4572 15.5127 22.129 14.7488 21.4728C13.9849 20.8114 13.5286 19.8501 13.3799 18.5889Z" fill="black"/>
    <path d="M9.25745 10.9829H11.5261V18.1196C11.5261 19.0527 11.4441 19.7705 11.28 20.2729C11.0596 20.9292 10.6597 21.4573 10.0803 21.8572C9.50098 22.252 8.73706 22.4493 7.78857 22.4493C6.67603 22.4493 5.81982 22.1392 5.21997 21.5188C4.62012 20.8933 4.31763 19.9781 4.3125 18.7733L6.45813 18.5272C6.48376 19.1732 6.57861 19.6295 6.74268 19.8961C6.98877 20.3011 7.36304 20.5037 7.86548 20.5037C8.37305 20.5037 8.73193 20.3601 8.94214 20.073C9.15234 19.7808 9.25745 19.1783 9.25745 18.2657V10.9829Z" fill="black"/>
  </g>
  <defs>
    <clipPath id="vanillajs">
      <rect width="24" height="24" fill="white"/>
    </clipPath>
  </defs>
</svg>
